
      <svg data-logo="logo" xmlns="http://www.w3.org/2000/svg" viewBox="0 0 114 49">
        <g id="logogram" transform="translate(0, 4.5) rotate(0) translate(17, 20) scale(-1, 1) translate(-17, -20)"><path d="M19.2614 5.82192V0H0.905273V40H19.2614V34.1781C15.5012 34.1781 11.8949 32.6842 9.23601 30.0253C6.57711 27.3664 5.08335 23.7603 5.08335 20C5.08335 16.2397 6.57711 12.6334 9.23601 9.97459C11.8949 7.31568 15.5012 5.82192 19.2614 5.82192Z" fill="#0F87FF"/><path d="M19.2614 5.8219V34.1781C23.0217 34.1781 26.628 32.6842 29.2869 30.0253C31.9458 27.3664 33.4395 23.7603 33.4395 20C33.4395 16.2397 31.9458 12.6334 29.2869 9.97457C26.628 7.31567 23.0217 5.8219 19.2614 5.8219Z" fill="#0A87FF"/></g>
        <g id="logotype" transform="translate(35, 1)"><path fill="#111111" d="M12.24 19.10Q15.35 19.10 17.61 20.38Q19.87 21.65 21.04 23.84Q22.21 26.03 22.21 28.73L22.21 28.73Q22.21 31.42 21.04 33.61Q19.87 35.80 17.61 37.07Q15.35 38.35 12.24 38.35L12.24 38.35Q9.12 38.35 6.86 37.07Q4.61 35.80 3.43 33.61Q2.26 31.42 2.26 28.73L2.26 28.73Q2.26 26.03 3.43 23.84Q4.61 21.65 6.86 20.38Q9.12 19.10 12.24 19.10L12.24 19.10ZM8.14 28.73Q8.14 31.91 9.03 34.24Q9.93 36.56 12.24 36.56L12.24 36.56Q14.51 36.56 15.42 34.22Q16.33 31.88 16.33 28.73L16.33 28.73Q16.33 25.57 15.44 23.25Q14.55 20.92 12.24 20.92L12.24 20.92Q9.93 20.92 9.03 23.25Q8.14 25.57 8.14 28.73L8.14 28.73ZM34.15 38.35Q31.45 38.35 29.30 37.14Q27.15 35.94 25.94 33.80Q24.73 31.66 24.73 28.97L24.73 28.97Q24.73 26.13 26.06 23.88Q27.39 21.62 29.75 20.36Q32.12 19.10 35.09 19.10L35.09 19.10Q37.19 19.10 38.87 19.71Q40.55 20.32 41.51 21.39Q42.48 22.46 42.48 23.75L42.48 23.75Q42.48 24.84 41.84 25.47Q41.22 26.10 40.13 26.10L40.13 26.10Q38.94 26.10 38.45 25.45Q37.96 24.80 37.82 23.82L37.82 23.82Q37.65 22.39 37.10 21.65Q36.56 20.92 35.27 20.92L35.27 20.92Q33.06 20.92 31.84 22.74Q30.61 24.56 30.61 27.88L30.61 27.88Q30.61 31.24 31.92 32.99Q33.23 34.74 35.83 34.74L35.83 34.74Q39.01 34.74 41.01 32.44L41.01 32.44L41.25 32.16L42.23 32.92L42.06 33.34Q41.01 35.83 39.01 37.09Q37.02 38.35 34.15 38.35L34.15 38.35ZM55.25 36.77L55.25 38L44.05 38L44.05 36.77L47.03 36.08L47.03 12.41L44.05 11.47L44.05 10.63L51.72 8.95L52.45 8.95L52.45 36.08L55.25 36.77ZM68.69 32.02L72.23 23.44Q72.54 22.70 72.54 22.21L72.54 22.21Q72.54 21.51 71.86 21.13Q71.18 20.74 69.74 20.67L69.74 20.67L69.74 19.45L78.18 19.45L78.18 20.67Q76.85 20.92 76.16 21.22Q75.48 21.51 75.11 22.00Q74.75 22.49 74.33 23.47L74.33 23.47L66.24 42.94Q65.30 45.21 63.97 46.19L63.97 46.19Q62.64 47.10 60.50 47.10L60.50 47.10Q58.68 47.10 57.53 46.31Q56.37 45.52 56.37 44.09L56.37 44.09Q56.37 43.11 57.02 42.50Q57.67 41.88 58.61 41.88L58.61 41.88Q59.42 41.88 60.03 42.34Q60.64 42.80 60.89 43.67L60.89 43.67Q61.13 44.51 61.36 44.76Q61.59 45 62.08 45L62.08 45Q62.67 45 63.28 44.37Q63.90 43.74 64.28 42.69L64.28 42.69L65.68 38.98L58.19 22.07Q57.91 21.41 57.30 21.11Q56.69 20.81 55.39 20.67L55.39 20.67L55.39 19.45L66.80 19.45L66.80 20.67Q65.47 20.78 64.89 21.02Q64.32 21.27 64.32 21.79L64.32 21.79Q64.32 22.14 64.46 22.42L64.46 22.42L68.52 32.02L68.69 32.02Z"/></g>
        
      </svg>
    