<svg xmlns="http://www.w3.org/2000/svg" viewBox="-1.2200000286102295 0.6800000071525574 124.31999969482422 48.63999938964844" data-asc="0.875" width="124.31999969482422" height="48.63999938964844"><defs/><g fill="#000000"><g transform="translate(0, 0)"><path d="M1.71 43.07L13.92 43.07Q15.28 43.07 16.06 42.33Q16.85 41.60 16.85 40.63Q16.85 39.65 16.06 38.92Q15.28 38.18 13.92 38.18L1.71 38.18Q0.34 38.18-0.44 38.92Q-1.22 39.65-1.22 40.63Q-1.22 41.60-0.44 42.33Q0.34 43.07 1.71 43.07M4.39 36.82L8.11 36.82Q9.18 36.82 9.89 36.08Q10.60 35.35 10.60 34.38Q10.60 33.40 9.89 32.67Q9.18 31.93 8.11 31.93L4.39 31.93Q3.32 31.93 2.61 32.67Q1.90 33.40 1.90 34.38Q1.90 35.35 2.61 36.08Q3.32 36.82 4.39 36.82M13.77 36.82L17.48 36.82Q18.55 36.82 19.26 36.08Q19.97 35.35 19.97 34.38Q19.97 33.40 19.26 32.67Q18.55 31.93 17.48 31.93L13.77 31.93Q12.70 31.93 11.99 32.67Q11.28 33.40 11.28 34.38Q11.28 35.35 11.99 36.08Q12.70 36.82 13.77 36.82M4.39 30.57L8.11 30.57Q9.18 30.57 9.89 29.83Q10.60 29.10 10.60 28.13Q10.60 27.15 9.89 26.42Q9.18 25.68 8.11 25.68L4.39 25.68Q3.32 25.68 2.61 26.42Q1.90 27.15 1.90 28.13Q1.90 29.10 2.61 29.83Q3.32 30.57 4.39 30.57M16.89 30.57L20.61 30.57Q21.68 30.57 22.39 29.83Q23.10 29.10 23.10 28.13Q23.10 27.15 22.39 26.42Q21.68 25.68 20.61 25.68L16.89 25.68Q15.82 25.68 15.11 26.42Q14.40 27.15 14.40 28.13Q14.40 29.10 15.11 29.83Q15.82 30.57 16.89 30.57M4.39 24.32L8.11 24.32Q9.18 24.32 9.89 23.58Q10.60 22.85 10.60 21.88Q10.60 20.90 9.89 20.17Q9.18 19.43 8.11 19.43L4.39 19.43Q3.32 19.43 2.61 20.17Q1.90 20.90 1.90 21.88Q1.90 22.85 2.61 23.58Q3.32 24.32 4.39 24.32M16.89 24.32L20.61 24.32Q21.68 24.32 22.39 23.58Q23.10 22.85 23.10 21.88Q23.10 20.90 22.39 20.17Q21.68 19.43 20.61 19.43L16.89 19.43Q15.82 19.43 15.11 20.17Q14.40 20.90 14.40 21.88Q14.40 22.85 15.11 23.58Q15.82 24.32 16.89 24.32M4.39 18.07L8.11 18.07Q9.18 18.07 9.89 17.33Q10.60 16.60 10.60 15.63Q10.60 14.65 9.89 13.92Q9.18 13.18 8.11 13.18L4.39 13.18Q3.32 13.18 2.61 13.92Q1.90 14.65 1.90 15.63Q1.90 16.60 2.61 17.33Q3.32 18.07 4.39 18.07M16.89 18.07L20.61 18.07Q21.68 18.07 22.39 17.33Q23.10 16.60 23.10 15.63Q23.10 14.65 22.39 13.92Q21.68 13.18 20.61 13.18L16.89 13.18Q15.82 13.18 15.11 13.92Q14.40 14.65 14.40 15.63Q14.40 16.60 15.11 17.33Q15.82 18.07 16.89 18.07M4.39 11.82L8.11 11.82Q9.18 11.82 9.89 11.08Q10.60 10.35 10.60 9.38Q10.60 8.40 9.89 7.67Q9.18 6.93 8.11 6.93L4.39 6.93Q3.32 6.93 2.61 7.67Q1.90 8.40 1.90 9.38Q1.90 10.35 2.61 11.08Q3.32 11.82 4.39 11.82M13.77 11.82L17.48 11.82Q18.55 11.82 19.26 11.08Q19.97 10.35 19.97 9.38Q19.97 8.40 19.26 7.67Q18.55 6.93 17.48 6.93L13.77 6.93Q12.70 6.93 11.99 7.67Q11.28 8.40 11.28 9.38Q11.28 10.35 11.99 11.08Q12.70 11.82 13.77 11.82M1.71 5.57L13.92 5.57Q15.28 5.57 16.06 4.83Q16.85 4.10 16.85 3.13Q16.85 2.15 16.06 1.42Q15.28 0.68 13.92 0.68L1.71 0.68Q0.34 0.68-0.44 1.42Q-1.22 2.15-1.22 3.13Q-1.22 4.10-0.44 4.83Q0.34 5.57 1.71 5.57ZM32.96 43.07L42.04 43.07Q43.41 43.07 44.19 42.33Q44.97 41.60 44.97 40.63Q44.97 39.65 44.19 38.92Q43.41 38.18 42.04 38.18L32.96 38.18Q31.59 38.18 30.81 38.92Q30.03 39.65 30.03 40.63Q30.03 41.60 30.81 42.33Q31.59 43.07 32.96 43.07M29.39 36.82L33.11 36.82Q34.18 36.82 34.89 36.08Q35.60 35.35 35.60 34.38Q35.60 33.40 34.89 32.67Q34.18 31.93 33.11 31.93L29.39 31.93Q28.32 31.93 27.61 32.67Q26.90 33.40 26.90 34.38Q26.90 35.35 27.61 36.08Q28.32 36.82 29.39 36.82M41.89 36.82L45.61 36.82Q46.68 36.82 47.39 36.08Q48.10 35.35 48.10 34.38Q48.10 33.40 47.39 32.67Q46.68 31.93 45.61 31.93L41.89 31.93Q40.82 31.93 40.11 32.67Q39.40 33.40 39.40 34.38Q39.40 35.35 40.11 36.08Q40.82 36.82 41.89 36.82M29.39 30.57L33.11 30.57Q34.18 30.57 34.89 29.83Q35.60 29.10 35.60 28.13Q35.60 27.15 34.89 26.42Q34.18 25.68 33.11 25.68L29.39 25.68Q28.32 25.68 27.61 26.42Q26.90 27.15 26.90 28.13Q26.90 29.10 27.61 29.83Q28.32 30.57 29.39 30.57M41.89 30.57L45.61 30.57Q46.68 30.57 47.39 29.83Q48.10 29.10 48.10 28.13Q48.10 27.15 47.39 26.42Q46.68 25.68 45.61 25.68L41.89 25.68Q40.82 25.68 40.11 26.42Q39.40 27.15 39.40 28.13Q39.40 29.10 40.11 29.83Q40.82 30.57 41.89 30.57M29.39 24.32L33.11 24.32Q34.18 24.32 34.89 23.58Q35.60 22.85 35.60 21.88Q35.60 20.90 34.89 20.17Q34.18 19.43 33.11 19.43L29.39 19.43Q28.32 19.43 27.61 20.17Q26.90 20.90 26.90 21.88Q26.90 22.85 27.61 23.58Q28.32 24.32 29.39 24.32M41.89 24.32L45.61 24.32Q46.68 24.32 47.39 23.58Q48.10 22.85 48.10 21.88Q48.10 20.90 47.39 20.17Q46.68 19.43 45.61 19.43L41.89 19.43Q40.82 19.43 40.11 20.17Q39.40 20.90 39.40 21.88Q39.40 22.85 40.11 23.58Q40.82 24.32 41.89 24.32M32.96 18.07L42.04 18.07Q43.41 18.07 44.19 17.33Q44.97 16.60 44.97 15.63Q44.97 14.65 44.19 13.92Q43.41 13.18 42.04 13.18L32.96 13.18Q31.59 13.18 30.81 13.92Q30.03 14.65 30.03 15.63Q30.03 16.60 30.81 17.33Q31.59 18.07 32.96 18.07ZM57.96 43.07L67.04 43.07Q68.41 43.07 69.19 42.33Q69.97 41.60 69.97 40.63Q69.97 39.65 69.19 38.92Q68.41 38.18 67.04 38.18L57.96 38.18Q56.59 38.18 55.81 38.92Q55.03 39.65 55.03 40.63Q55.03 41.60 55.81 42.33Q56.59 43.07 57.96 43.07M54.39 36.82L58.11 36.82Q59.18 36.82 59.89 36.08Q60.60 35.35 60.60 34.38Q60.60 33.40 59.89 32.67Q59.18 31.93 58.11 31.93L54.39 31.93Q53.32 31.93 52.61 32.67Q51.90 33.40 51.90 34.38Q51.90 35.35 52.61 36.08Q53.32 36.82 54.39 36.82M66.89 36.82L70.61 36.82Q71.68 36.82 72.39 36.08Q73.10 35.35 73.10 34.38Q73.10 33.40 72.39 32.67Q71.68 31.93 70.61 31.93L66.89 31.93Q65.82 31.93 65.11 32.67Q64.40 33.40 64.40 34.38Q64.40 35.35 65.11 36.08Q65.82 36.82 66.89 36.82M54.39 30.57L58.11 30.57Q59.18 30.57 59.89 29.83Q60.60 29.10 60.60 28.13Q60.60 27.15 59.89 26.42Q59.18 25.68 58.11 25.68L54.39 25.68Q53.32 25.68 52.61 26.42Q51.90 27.15 51.90 28.13Q51.90 29.10 52.61 29.83Q53.32 30.57 54.39 30.57M54.39 24.32L58.11 24.32Q59.18 24.32 59.89 23.58Q60.60 22.85 60.60 21.88Q60.60 20.90 59.89 20.17Q59.18 19.43 58.11 19.43L54.39 19.43Q53.32 19.43 52.61 20.17Q51.90 20.90 51.90 21.88Q51.90 22.85 52.61 23.58Q53.32 24.32 54.39 24.32M66.89 24.32L70.61 24.32Q71.68 24.32 72.39 23.58Q73.10 22.85 73.10 21.88Q73.10 20.90 72.39 20.17Q71.68 19.43 70.61 19.43L66.89 19.43Q65.82 19.43 65.11 20.17Q64.40 20.90 64.40 21.88Q64.40 22.85 65.11 23.58Q65.82 24.32 66.89 24.32M57.96 18.07L67.04 18.07Q68.41 18.07 69.19 17.33Q69.97 16.60 69.97 15.63Q69.97 14.65 69.19 13.92Q68.41 13.18 67.04 13.18L57.96 13.18Q56.59 13.18 55.81 13.92Q55.03 14.65 55.03 15.63Q55.03 16.60 55.81 17.33Q56.59 18.07 57.96 18.07ZM82.96 43.07L92.04 43.07Q93.41 43.07 94.19 42.33Q94.97 41.60 94.97 40.63Q94.97 39.65 94.19 38.92Q93.41 38.18 92.04 38.18L82.96 38.18Q81.59 38.18 80.81 38.92Q80.03 39.65 80.03 40.63Q80.03 41.60 80.81 42.33Q81.59 43.07 82.96 43.07M85.64 36.82L89.36 36.82Q90.43 36.82 91.14 36.08Q91.85 35.35 91.85 34.38Q91.85 33.40 91.14 32.67Q90.43 31.93 89.36 31.93L85.64 31.93Q84.57 31.93 83.86 32.67Q83.15 33.40 83.15 34.38Q83.15 35.35 83.86 36.08Q84.57 36.82 85.64 36.82M85.64 30.57L89.36 30.57Q90.43 30.57 91.14 29.83Q91.85 29.10 91.85 28.13Q91.85 27.15 91.14 26.42Q90.43 25.68 89.36 25.68L85.64 25.68Q84.57 25.68 83.86 26.42Q83.15 27.15 83.15 28.13Q83.15 29.10 83.86 29.83Q84.57 30.57 85.64 30.57M85.64 24.32L89.36 24.32Q90.43 24.32 91.14 23.58Q91.85 22.85 91.85 21.88Q91.85 20.90 91.14 20.17Q90.43 19.43 89.36 19.43L85.64 19.43Q84.57 19.43 83.86 20.17Q83.15 20.90 83.15 21.88Q83.15 22.85 83.86 23.58Q84.57 24.32 85.64 24.32M85.64 18.07L89.36 18.07Q90.43 18.07 91.14 17.33Q91.85 16.60 91.85 15.63Q91.85 14.65 91.14 13.92Q90.43 13.18 89.36 13.18L85.64 13.18Q84.57 13.18 83.86 13.92Q83.15 14.65 83.15 15.63Q83.15 16.60 83.86 17.33Q84.57 18.07 85.64 18.07M85.64 11.82L89.36 11.82Q90.43 11.82 91.14 11.08Q91.85 10.35 91.85 9.38Q91.85 8.40 91.14 7.67Q90.43 6.93 89.36 6.93L85.64 6.93Q84.57 6.93 83.86 7.67Q83.15 8.40 83.15 9.38Q83.15 10.35 83.86 11.08Q84.57 11.82 85.64 11.82M82.52 5.57L89.36 5.57Q90.43 5.57 91.14 4.83Q91.85 4.10 91.85 3.13Q91.85 2.15 91.14 1.42Q90.43 0.68 89.36 0.68L82.52 0.68Q81.45 0.68 80.74 1.42Q80.03 2.15 80.03 3.13Q80.03 4.10 80.74 4.83Q81.45 5.57 82.52 5.57ZM104.39 49.32L111.23 49.32Q112.30 49.32 113.01 48.58Q113.72 47.85 113.72 46.88Q113.72 45.90 113.01 45.17Q112.30 44.43 111.23 44.43L104.39 44.43Q103.32 44.43 102.61 45.17Q101.90 45.90 101.90 46.88Q101.90 47.85 102.61 48.58Q103.32 49.32 104.39 49.32M110.64 43.07L114.36 43.07Q115.43 43.07 116.14 42.33Q116.85 41.60 116.85 40.63Q116.85 39.65 116.14 38.92Q115.43 38.18 114.36 38.18L110.64 38.18Q109.57 38.18 108.86 38.92Q108.15 39.65 108.15 40.63Q108.15 41.60 108.86 42.33Q109.57 43.07 110.64 43.07M107.96 36.82L117.04 36.82Q118.41 36.82 119.19 36.08Q119.97 35.35 119.97 34.38Q119.97 33.40 119.19 32.67Q118.41 31.93 117.04 31.93L107.96 31.93Q106.59 31.93 105.81 32.67Q105.03 33.40 105.03 34.38Q105.03 35.35 105.81 36.08Q106.59 36.82 107.96 36.82M104.39 30.57L108.11 30.57Q109.18 30.57 109.89 29.83Q110.60 29.10 110.60 28.13Q110.60 27.15 109.89 26.42Q109.18 25.68 108.11 25.68L104.39 25.68Q103.32 25.68 102.61 26.42Q101.90 27.15 101.90 28.13Q101.90 29.10 102.61 29.83Q103.32 30.57 104.39 30.57M116.89 30.57L120.61 30.57Q121.68 30.57 122.39 29.83Q123.10 29.10 123.10 28.13Q123.10 27.15 122.39 26.42Q121.68 25.68 120.61 25.68L116.89 25.68Q115.82 25.68 115.11 26.42Q114.40 27.15 114.40 28.13Q114.40 29.10 115.11 29.83Q115.82 30.57 116.89 30.57M104.39 24.32L108.11 24.32Q109.18 24.32 109.89 23.58Q110.60 22.85 110.60 21.88Q110.60 20.90 109.89 20.17Q109.18 19.43 108.11 19.43L104.39 19.43Q103.32 19.43 102.61 20.17Q101.90 20.90 101.90 21.88Q101.90 22.85 102.61 23.58Q103.32 24.32 104.39 24.32M116.89 24.32L120.61 24.32Q121.68 24.32 122.39 23.58Q123.10 22.85 123.10 21.88Q123.10 20.90 122.39 20.17Q121.68 19.43 120.61 19.43L116.89 19.43Q115.82 19.43 115.11 20.17Q114.40 20.90 114.40 21.88Q114.40 22.85 115.11 23.58Q115.82 24.32 116.89 24.32M104.39 18.07L108.11 18.07Q109.18 18.07 109.89 17.33Q110.60 16.60 110.60 15.63Q110.60 14.65 109.89 13.92Q109.18 13.18 108.11 13.18L104.39 13.18Q103.32 13.18 102.61 13.92Q101.90 14.65 101.90 15.63Q101.90 16.60 102.61 17.33Q103.32 18.07 104.39 18.07M116.89 18.07L120.61 18.07Q121.68 18.07 122.39 17.33Q123.10 16.60 123.10 15.63Q123.10 14.65 122.39 13.92Q121.68 13.18 120.61 13.18L116.89 13.18Q115.82 13.18 115.11 13.92Q114.40 14.65 114.40 15.63Q114.40 16.60 115.11 17.33Q115.82 18.07 116.89 18.07Z"/></g></g></svg>